<svg width="52" height="52" viewBox="0 0 52 52" fill="none" xmlns="http://www.w3.org/2000/svg">
<rect x="0.000732422" width="52" height="52" rx="6" fill="white"/>
<path d="M26.1887 23.5384C24.8312 23.5384 23.7271 24.6427 23.7271 26C23.7271 27.3574 24.8314 28.4617 26.1887 28.4617C27.546 28.4617 28.6503 27.3574 28.6503 26C28.6503 24.6427 27.546 23.5384 26.1887 23.5384V23.5384Z" fill="black"/>
<path d="M17.8435 29.0267C17.8435 28.1751 17.1506 27.4822 16.2989 27.4822C15.4473 27.4822 14.7544 28.1751 14.7544 29.0267C14.7544 29.8784 15.4473 30.5713 16.2989 30.5713C17.1506 30.5713 17.8435 29.8784 17.8435 29.0267Z" fill="black"/>
<path d="M34.8334 26C35.0795 25.7287 35.3106 25.4566 35.5244 25.1848C37.184 23.0759 37.6687 21.1712 36.8897 19.8218C36.1108 18.4724 34.219 17.9399 31.5627 18.3227C29.9151 18.5601 28.0692 19.1304 26.1898 19.9696C25.1992 19.5271 24.218 19.1598 23.2702 18.8764C23.3645 18.5889 23.4648 18.3114 23.5713 18.0452C24.152 16.5935 24.8796 15.6012 25.6006 15.2415C25.7446 14.6214 26.082 14.0746 26.5456 13.6683C26.4274 13.6521 26.3082 13.6436 26.1885 13.6436C24.6303 13.6436 23.2234 15.0158 22.2268 17.5074C22.0984 17.8287 21.9783 18.1649 21.8663 18.5137C21.5082 18.4362 21.157 18.3721 20.8146 18.3227C18.1588 17.9401 16.2669 18.4724 15.4878 19.8218C14.7088 21.1712 15.1935 23.0759 16.8529 25.1848C17.8825 26.4933 19.2987 27.807 20.9654 29.0152C21.0778 30.0941 21.2501 31.1271 21.4786 32.0892C21.1824 32.1515 20.8919 32.2033 20.6081 32.2442C19.0626 32.4669 17.8407 32.3334 17.1681 31.8901C16.8931 31.9739 16.6012 32.0195 16.299 32.0195C15.9603 32.0195 15.6351 31.962 15.3313 31.8579C15.3764 31.968 15.4283 32.0749 15.4878 32.1782C16.1021 33.2424 17.408 33.7984 19.2353 33.7984C19.7254 33.7984 20.2531 33.7582 20.8148 33.6774C21.1572 33.628 21.5084 33.5638 21.8665 33.4864C21.9783 33.8352 22.0984 34.1715 22.227 34.4926C23.2234 36.9842 24.6305 38.3565 26.1885 38.3565C27.7466 38.3565 29.1537 36.9842 30.1504 34.4926C30.7686 32.9466 31.1987 31.0632 31.4117 29.0156C32.2898 28.3791 33.0982 27.7133 33.8172 27.0344C34.0193 27.2599 34.2093 27.4856 34.3866 27.7107C35.3553 28.9419 35.8506 30.0703 35.7993 30.875C36.2469 31.2955 36.5654 31.8513 36.6885 32.4769C36.762 32.3821 36.8295 32.2827 36.8897 32.1782C37.6689 30.8288 37.184 28.9243 35.5246 26.8153C35.3106 26.5434 35.0795 26.2713 34.8334 26ZM31.7694 19.756C33.7408 19.4719 35.1862 19.7671 35.6357 20.5458C36.0854 21.3245 35.6183 22.7239 34.3866 24.2894C34.2093 24.5145 34.0193 24.7404 33.8172 24.9657C32.4487 23.6736 30.7569 22.4286 28.8771 21.3435C28.5592 21.1601 28.24 20.9838 27.9204 20.8143C29.2734 20.2898 30.5806 19.9272 31.7694 19.756ZM17.991 24.2894C16.7592 22.7241 16.2924 21.3245 16.742 20.5458C17.1915 19.7671 18.6367 19.4719 20.6083 19.756C20.8921 19.7967 21.1826 19.8486 21.4788 19.9108C21.0439 21.7419 20.8116 23.8295 20.8116 26C20.8116 26.3669 20.8186 26.7314 20.8317 27.0928C19.701 26.1837 18.7334 25.233 17.991 24.2894ZM22.2596 26C22.2596 23.9472 22.4759 21.9827 22.8805 20.2703C24.5659 20.776 26.3753 21.5711 28.1531 22.5976C29.9311 23.6238 31.5243 24.7931 32.8051 26C31.5243 27.2067 29.9311 28.3762 28.1531 29.4025C26.3753 30.4289 24.5659 31.224 22.8805 31.7297C22.4757 30.0173 22.2596 28.0529 22.2596 26ZM28.8059 33.9549C28.066 35.8043 27.0876 36.9084 26.1885 36.9084C25.2895 36.9084 24.311 35.8043 23.5713 33.9549C23.4648 33.6887 23.3645 33.4111 23.2702 33.1236C25.0734 32.5846 26.9973 31.7418 28.8769 30.6565C29.195 30.473 29.5072 30.2847 29.8138 30.0926C29.5917 31.5264 29.2519 32.8397 28.8059 33.9549Z" fill="black"/>
<path d="M33.7523 31.5104C32.9005 31.5104 32.2078 32.2033 32.2078 33.055C32.2078 33.9066 32.9005 34.5995 33.7523 34.5995C34.604 34.5995 35.2969 33.9066 35.2969 33.055C35.2969 32.2033 34.6038 31.5104 33.7523 31.5104Z" fill="black"/>
<path d="M28.515 17.4631C29.3667 17.4631 30.0596 16.7702 30.0596 15.9186C30.0596 15.0669 29.3667 14.374 28.515 14.374C27.6634 14.374 26.9705 15.0669 26.9705 15.9186C26.9705 16.7702 27.6634 17.4631 28.515 17.4631Z" fill="black"/>
</svg>
