<svg width="24" height="24" viewBox="0 0 24 24" fill="none" xmlns="http://www.w3.org/2000/svg">
<path fill-rule="evenodd" clip-rule="evenodd" d="M12.0632 4.5C10.8205 4.5 9.81324 5.505 9.81324 6.75H14.3132C14.3132 5.505 13.306 4.5 12.0632 4.5ZM14.3132 8.25V9C14.3132 9.4125 14.6492 9.75 15.0632 9.75C15.4772 9.75 15.8132 9.4125 15.8132 9V8.25H16.7297C17.11 8.25 17.4295 8.535 17.4745 8.91L18.6212 18.66C18.6737 19.11 18.3257 19.5 17.8765 19.5H6.24999C5.80074 19.5 5.45274 19.11 5.50524 18.66L6.65199 8.91C6.69699 8.535 7.01649 8.25 7.39674 8.25H8.31324V9C8.31324 9.4125 8.64924 9.75 9.06324 9.75C9.47724 9.75 9.81324 9.4125 9.81324 9V8.25H14.3132ZM8.31324 6.75H7.39674C6.25599 6.75 5.29599 7.605 5.16249 8.7375L4.01574 18.4875C3.85824 19.8225 4.90299 21 6.24999 21H17.8765C19.2235 21 20.2682 19.8225 20.1107 18.4875L18.964 8.7375C18.8305 7.605 17.8705 6.75 16.7297 6.75H15.8132C15.8132 4.68 14.134 3 12.0632 3C9.99174 3 8.31324 4.68 8.31324 6.75Z" fill="#131313"/>
</svg>
