<svg width="24" height="24" viewBox="0 0 24 24" fill="none" xmlns="http://www.w3.org/2000/svg">
<path fill-rule="evenodd" clip-rule="evenodd" d="M11.0302 5.21937C11.3235 5.51187 11.3235 5.99187 11.0302 6.28437L8.5605 8.75187H15.4395L12.9698 6.28437C12.6765 5.99187 12.6765 5.51187 12.9698 5.21937C13.263 4.92688 13.737 4.92688 14.0302 5.21937L17.5605 8.75187H20.25C20.664 8.75187 21 9.08938 21 9.50187C21 9.91437 20.664 10.2519 20.25 10.2519H20.1255L18.9615 16.6569C18.7673 17.7219 17.8357 18.5019 16.7483 18.5019H7.25175C6.16425 18.5019 5.23275 17.7219 5.0385 16.6569L3.8745 10.2519H3.75C3.336 10.2519 3 9.91437 3 9.50187C3 9.08938 3.336 8.75187 3.75 8.75187H6.4395L9.96975 5.21937C10.263 4.92688 10.737 4.92688 11.0302 5.21937ZM5.3985 10.2519L6.51375 16.3869C6.57825 16.7394 6.8895 17.0019 7.25175 17.0019H16.7482C17.1105 17.0019 17.421 16.7394 17.4855 16.3869L18.6015 10.2519H5.3985ZM8.50125 11.7594C8.91 11.6919 9.297 11.9694 9.3645 12.3819L9.7395 14.6319C9.80775 15.0369 9.53175 15.4269 9.12375 15.4944C8.715 15.5619 8.328 15.2844 8.2605 14.8719L7.8855 12.6219C7.81725 12.2169 8.09325 11.8269 8.50125 11.7594ZM15.4987 11.7594C15.9067 11.8269 16.1827 12.2169 16.1145 12.6219L15.7395 14.8719C15.672 15.2844 15.285 15.5619 14.8762 15.4944C14.4682 15.4269 14.1922 15.0369 14.2605 14.6319L14.6355 12.3819C14.703 11.9694 15.09 11.6919 15.4987 11.7594ZM12 11.7519C12.414 11.7519 12.75 12.0894 12.75 12.5019V14.7519C12.75 15.1644 12.414 15.5019 12 15.5019C11.586 15.5019 11.25 15.1644 11.25 14.7519V12.5019C11.25 12.0894 11.586 11.7519 12 11.7519Z" fill="#131313"/>
</svg>
