<svg width="24" height="24" viewBox="0 0 24 24" fill="none" xmlns="http://www.w3.org/2000/svg">
<path fill-rule="evenodd" clip-rule="evenodd" d="M16.8857 5.05714H12.7714V3.77143C12.7714 3.34538 12.426 3 12 3C11.574 3 11.2286 3.34538 11.2286 3.77143V5.05714H7.11429V3.77143C7.11429 3.34538 6.76891 3 6.34286 3C5.91681 3 5.57143 3.34538 5.57143 3.77143V5.06867C4.12976 5.19859 3 6.41022 3 7.88571V18.1714C3 19.7336 4.26639 21 5.82857 21H18.1714C19.7336 21 21 19.7336 21 18.1714V7.88571C21 6.41022 19.8702 5.19859 18.4286 5.06867V3.77143C18.4286 3.34538 18.0832 3 17.6571 3C17.2311 3 16.8857 3.34538 16.8857 3.77143V5.05714ZM6.34286 6.6L5.82857 6.6C5.11849 6.6 4.54286 7.17563 4.54286 7.88571V18.1714C4.54286 18.8815 5.11849 19.4571 5.82857 19.4571H18.1714C18.8815 19.4571 19.4571 18.8815 19.4571 18.1714V7.88571C19.4571 7.17563 18.8815 6.6 18.1714 6.6L17.6571 6.6H12H6.34286ZM8.91429 13.0286C8.91429 13.5966 8.45378 14.0571 7.88571 14.0571C7.31765 14.0571 6.85714 13.5966 6.85714 13.0286C6.85714 12.4605 7.31765 12 7.88571 12C8.45378 12 8.91429 12.4605 8.91429 13.0286ZM12 14.0571C12.5681 14.0571 13.0286 13.5966 13.0286 13.0286C13.0286 12.4605 12.5681 12 12 12C11.4319 12 10.9714 12.4605 10.9714 13.0286C10.9714 13.5966 11.4319 14.0571 12 14.0571ZM16.1143 14.0571C16.6824 14.0571 17.1429 13.5966 17.1429 13.0286C17.1429 12.4605 16.6824 12 16.1143 12C15.5462 12 15.0857 12.4605 15.0857 13.0286C15.0857 13.5966 15.5462 14.0571 16.1143 14.0571Z" fill="#131313"/>
</svg>
