<svg width="24" height="24" viewBox="0 0 24 24" fill="none" xmlns="http://www.w3.org/2000/svg">
<path fill-rule="evenodd" clip-rule="evenodd" d="M11.75 21.5C17.1348 21.5 21.5 17.1348 21.5 11.75C21.5 6.36522 17.1348 2 11.75 2C6.36522 2 2 6.36522 2 11.75C2 17.1348 6.36522 21.5 11.75 21.5ZM11.75 20C7.19365 20 3.5 16.3063 3.5 11.75C3.5 7.19365 7.19365 3.5 11.75 3.5C16.3063 3.5 20 7.19365 20 11.75C20 16.3063 16.3063 20 11.75 20ZM8 11.75C8 11.3358 8.38745 11 8.86538 11H14.6346C15.1126 11 15.5 11.3358 15.5 11.75C15.5 12.1642 15.1126 12.5 14.6346 12.5H8.86538C8.38745 12.5 8 12.1642 8 11.75Z" fill="#131313"/>
</svg>
