<svg width="24" height="24" viewBox="0 0 24 24" fill="none" xmlns="http://www.w3.org/2000/svg">
<path fill-rule="evenodd" clip-rule="evenodd" d="M11.75 21.5C17.1348 21.5 21.5 17.1348 21.5 11.75C21.5 6.36522 17.1348 2 11.75 2C6.36522 2 2 6.36522 2 11.75C2 17.1348 6.36522 21.5 11.75 21.5ZM11.75 20C7.19365 20 3.5 16.3063 3.5 11.75C3.5 7.19365 7.19365 3.5 11.75 3.5C16.3063 3.5 20 7.19365 20 11.75C20 16.3063 16.3063 20 11.75 20ZM7.52729 13.0279C7.23608 13.3224 7.23877 13.7973 7.5333 14.0885C7.82786 14.3797 8.30274 14.377 8.59395 14.0824L11.5214 11.121L14.5222 14.0936C14.8165 14.3851 15.2914 14.3828 15.5828 14.0884C15.8742 13.7941 15.8719 13.3193 15.5776 13.0279L12.0075 9.49289C11.7327 9.22073 11.2892 9.22308 11.0172 9.49814L7.52729 13.0279Z" fill="#131313"/>
</svg>
