<svg width="24" height="24" viewBox="0 0 24 24" fill="none" xmlns="http://www.w3.org/2000/svg">
<path fill-rule="evenodd" clip-rule="evenodd" d="M11.75 21.5C17.1348 21.5 21.5 17.1348 21.5 11.75C21.5 6.36522 17.1348 2 11.75 2C6.36522 2 2 6.36522 2 11.75C2 17.1348 6.36522 21.5 11.75 21.5ZM11.5 10.6893L13.9697 8.21967C14.2626 7.92678 14.7374 7.92678 15.0303 8.21967C15.3232 8.51256 15.3232 8.98744 15.0303 9.28033L12.5607 11.75L15.0303 14.2197C15.3232 14.5126 15.3232 14.9874 15.0303 15.2803C14.7374 15.5732 14.2626 15.5732 13.9697 15.2803L11.5 12.8107L9.03033 15.2803C8.73744 15.5732 8.26256 15.5732 7.96967 15.2803C7.67678 14.9874 7.67678 14.5126 7.96967 14.2197L10.4393 11.75L7.96967 9.28033C7.67678 8.98744 7.67678 8.51256 7.96967 8.21967C8.26256 7.92678 8.73744 7.92678 9.03033 8.21967L11.5 10.6893ZM3.5 11.75C3.5 16.3063 7.19365 20 11.75 20C16.3063 20 20 16.3063 20 11.75C20 7.19365 16.3063 3.5 11.75 3.5C7.19365 3.5 3.5 7.19365 3.5 11.75Z" fill="#131313"/>
</svg>
