<svg width="24" height="24" viewBox="0 0 24 24" fill="none" xmlns="http://www.w3.org/2000/svg">
<path fill-rule="evenodd" clip-rule="evenodd" d="M11.75 21.5C17.1348 21.5 21.5 17.1348 21.5 11.75C21.5 6.36522 17.1348 2 11.75 2C6.36522 2 2 6.36522 2 11.75C2 17.1348 6.36522 21.5 11.75 21.5ZM11.75 20C7.19365 20 3.5 16.3063 3.5 11.75C3.5 7.19365 7.19365 3.5 11.75 3.5C16.3063 3.5 20 7.19365 20 11.75C20 16.3063 16.3063 20 11.75 20ZM10.75 8.75V11H8.5C8.08579 11 7.75 11.3358 7.75 11.75C7.75 12.1642 8.08579 12.5 8.5 12.5H10.75V14.75C10.75 15.1642 11.0858 15.5 11.5 15.5C11.9142 15.5 12.25 15.1642 12.25 14.75V12.5H14.5C14.9142 12.5 15.25 12.1642 15.25 11.75C15.25 11.3358 14.9142 11 14.5 11H12.25V8.75C12.25 8.33579 11.9142 8 11.5 8C11.0858 8 10.75 8.33579 10.75 8.75Z" fill="#131313"/>
</svg>
