<svg width="24" height="24" viewBox="0 0 24 24" fill="none" xmlns="http://www.w3.org/2000/svg">
<path fill-rule="evenodd" clip-rule="evenodd" d="M5.50279 10.9907C5.24335 10.7312 5.24335 10.3112 5.50279 10.0518L10.194 5.36058C12.0081 3.54648 14.9489 3.54648 16.763 5.36058C18.5771 7.17401 18.5771 10.1148 16.763 11.9289L10.6638 18.0281C9.36787 19.324 7.26713 19.324 5.97191 18.0281C4.67603 16.7329 4.67603 14.6321 5.97191 13.3362L11.1329 8.17528C11.9099 7.39762 13.1706 7.39762 13.9482 8.17528C14.7252 8.95294 14.7252 10.213 13.9482 10.9907L10.194 14.7443C9.93519 15.003 9.51518 15.003 9.25574 14.7443C8.99696 14.4848 8.99696 14.0648 9.25574 13.806L13.0093 10.0518C13.2688 9.79298 13.2688 9.37296 13.0093 9.11352C12.7506 8.85474 12.3306 8.85474 12.0711 9.11352L6.91015 14.2751C6.13249 15.0521 6.13249 16.3129 6.91015 17.0899C7.68781 17.8675 8.94786 17.8675 9.72485 17.0899L15.8247 10.9907C17.1199 9.69477 17.1199 7.59403 15.8247 6.29881C14.5288 5.00293 12.4288 5.00293 11.1329 6.29881L6.44103 10.9907C6.18159 11.2494 5.76157 11.2494 5.50279 10.9907Z" fill="#131313"/>
</svg>
