<svg width="24" height="24" viewBox="0 0 24 24" fill="none" xmlns="http://www.w3.org/2000/svg">
<path fill-rule="evenodd" clip-rule="evenodd" d="M11.625 7.5C9.015 7.5 6.8835 9.555 6.756 12.1275C6.7395 12.4575 6.5115 12.735 6.192 12.8175C5.2185 13.065 4.5 13.95 4.5 15C4.5 16.245 5.50725 17.25 6.75 17.25H16.125C17.9888 17.25 19.5 15.7425 19.5 13.875C19.5 12.15 18.2017 10.725 16.5278 10.5225C16.2817 10.4925 16.0658 10.3425 15.9517 10.125C15.1372 8.565 13.5045 7.5 11.625 7.5ZM5.304 11.5425C5.71425 8.415 8.38725 6 11.625 6C13.9478 6 15.9795 7.245 17.0933 9.0975C19.3223 9.5475 21 11.5125 21 13.875C21 16.5675 18.8175 18.75 16.125 18.75H6.75C4.67925 18.75 3 17.07 3 15C3 13.44 3.95175 12.105 5.304 11.5425Z" fill="#131313"/>
</svg>
