<svg width="24" height="24" viewBox="0 0 24 24" fill="none" xmlns="http://www.w3.org/2000/svg">
<path fill-rule="evenodd" clip-rule="evenodd" d="M9.23077 3H18.4615C19.8635 3 21 4.13651 21 5.53846V14.7692C21 16.1712 19.8635 17.3077 18.4615 17.3077H17.3077V18.5934C17.3077 19.9225 16.2302 21 14.9011 21H6.46154C4.54978 21 3 19.4502 3 17.5385V9.0989C3 7.76978 4.07747 6.69231 5.40659 6.69231H6.69231V5.53846C6.69231 4.13651 7.82882 3 9.23077 3ZM6.69231 8.07692H5.40659C4.84217 8.07692 4.38462 8.53448 4.38462 9.0989V17.5385C4.38462 18.6855 5.31449 19.6154 6.46154 19.6154H14.9011C15.4655 19.6154 15.9231 19.1578 15.9231 18.5934V17.3077H9.23077C7.82882 17.3077 6.69231 16.1712 6.69231 14.7692V8.07692ZM9.23077 4.38462C8.59352 4.38462 8.07692 4.90121 8.07692 5.53846V14.7692C8.07692 15.4065 8.59352 15.9231 9.23077 15.9231H18.4615C19.0988 15.9231 19.6154 15.4065 19.6154 14.7692V5.53846C19.6154 4.90121 19.0988 4.38462 18.4615 4.38462H9.23077ZM11.5385 7.61538H16.1538C16.5362 7.61538 16.8462 7.92534 16.8462 8.30769C16.8462 8.69004 16.5362 9 16.1538 9H11.5385C11.1561 9 10.8462 8.69004 10.8462 8.30769C10.8462 7.92534 11.1561 7.61538 11.5385 7.61538ZM16.1538 11.3077H11.5385C11.1561 11.3077 10.8462 11.6176 10.8462 12C10.8462 12.3824 11.1561 12.6923 11.5385 12.6923H16.1538C16.5362 12.6923 16.8462 12.3824 16.8462 12C16.8462 11.6176 16.5362 11.3077 16.1538 11.3077Z" fill="#131313"/>
</svg>
