<svg width="24" height="24" viewBox="0 0 24 24" fill="none" xmlns="http://www.w3.org/2000/svg">
<path fill-rule="evenodd" clip-rule="evenodd" d="M9.23077 3H18.4615C19.8635 3 21 4.13651 21 5.53846V14.7692C21 16.1712 19.8635 17.3077 18.4615 17.3077H17.3077V18.5934C17.3077 19.9225 16.2302 21 14.9011 21H6.46154C4.54978 21 3 19.4502 3 17.5385V9.0989C3 7.76978 4.07747 6.69231 5.40659 6.69231H6.69231V5.53846C6.69231 4.13651 7.82882 3 9.23077 3ZM6.69231 8.07692H5.40659C4.84217 8.07692 4.38462 8.53448 4.38462 9.0989V17.5385C4.38462 18.6855 5.31449 19.6154 6.46154 19.6154H14.9011C15.4655 19.6154 15.9231 19.1578 15.9231 18.5934V17.3077H9.23077C7.82882 17.3077 6.69231 16.1712 6.69231 14.7692V8.07692ZM9.23077 4.38462C8.59352 4.38462 8.07692 4.90121 8.07692 5.53846V14.7692C8.07692 15.4065 8.59352 15.9231 9.23077 15.9231H18.4615C19.0988 15.9231 19.6154 15.4065 19.6154 14.7692V5.53846C19.6154 4.90121 19.0988 4.38462 18.4615 4.38462H9.23077ZM11.4003 11.6243L12.8689 10.1557L11.4003 8.68707C11.1299 8.41671 11.1299 7.97836 11.4003 7.708C11.6707 7.43763 12.109 7.43763 12.3794 7.708L13.848 9.1766L15.3166 7.708C15.587 7.43763 16.0253 7.43763 16.2957 7.708C16.566 7.97836 16.566 8.41671 16.2957 8.68707L14.8271 10.1557L16.2957 11.6243C16.566 11.8946 16.566 12.333 16.2957 12.6034C16.0253 12.8737 15.587 12.8737 15.3166 12.6034L13.848 11.1347L12.3794 12.6034C12.109 12.8737 11.6707 12.8737 11.4003 12.6034C11.1299 12.333 11.1299 11.8946 11.4003 11.6243Z" fill="#131313"/>
</svg>
