<svg width="24" height="24" viewBox="0 0 24 24" fill="none" xmlns="http://www.w3.org/2000/svg">
<path fill-rule="evenodd" clip-rule="evenodd" d="M12.2855 11.2249L16.2907 7.21967C16.5836 6.92678 17.0585 6.92678 17.3514 7.21967C17.6443 7.51256 17.6443 7.98744 17.3514 8.28033L13.3462 12.2855L17.3514 16.2907C17.6443 16.5836 17.6443 17.0585 17.3514 17.3514C17.0585 17.6443 16.5836 17.6443 16.2907 17.3514L12.2855 13.3462L8.28033 17.3514C7.98744 17.6443 7.51256 17.6443 7.21967 17.3514C6.92678 17.0585 6.92678 16.5836 7.21967 16.2907L11.2249 12.2855L7.21967 8.28033C6.92678 7.98744 6.92678 7.51256 7.21967 7.21967C7.51256 6.92678 7.98744 6.92678 8.28033 7.21967L12.2855 11.2249Z" fill="#131313"/>
</svg>
