<svg width="24" height="24" viewBox="0 0 24 24" fill="none" xmlns="http://www.w3.org/2000/svg">
<path fill-rule="evenodd" clip-rule="evenodd" d="M16.8857 5.05714H12.7714V3.77143C12.7714 3.34538 12.426 3 12 3C11.574 3 11.2286 3.34538 11.2286 3.77143V5.05714H7.11429V3.77143C7.11429 3.34538 6.76891 3 6.34286 3C5.91681 3 5.57143 3.34538 5.57143 3.77143V5.06867C4.12976 5.19859 3 6.41022 3 7.88571V18.1714C3 19.7336 4.26639 21 5.82857 21H18.1714C19.7336 21 21 19.7336 21 18.1714V7.88571C21 6.41022 19.8702 5.19859 18.4286 5.06867V3.77143C18.4286 3.34538 18.0832 3 17.6571 3C17.2311 3 16.8857 3.34538 16.8857 3.77143V5.05714ZM6.34286 6.6L5.82857 6.6C5.11849 6.6 4.54286 7.17563 4.54286 7.88571V18.1714C4.54286 18.8815 5.11849 19.4571 5.82857 19.4571H18.1714C18.8815 19.4571 19.4571 18.8815 19.4571 18.1714V7.88571C19.4571 7.17563 18.8815 6.6 18.1714 6.6L17.6571 6.6H12H6.34286ZM12.9586 13.2158L14.5951 14.8522C14.8963 15.1535 14.8963 15.6419 14.5951 15.9432C14.2938 16.2444 13.8054 16.2444 13.5041 15.9432L11.8676 14.3067L10.2312 15.9432C9.92993 16.2444 9.44149 16.2444 9.14023 15.9432C8.83897 15.6419 8.83897 15.1535 9.14023 14.8522L10.7767 13.2158L9.14023 11.5793C8.83897 11.278 8.83897 10.7896 9.14023 10.4883C9.44149 10.1871 9.92994 10.1871 10.2312 10.4883L11.8676 12.1248L13.5041 10.4883C13.8054 10.1871 14.2938 10.1871 14.5951 10.4883C14.8963 10.7896 14.8963 11.278 14.5951 11.5793L12.9586 13.2158Z" fill="#131313"/>
</svg>
