<svg width="48" height="48" viewBox="0 0 48 48" fill="none" xmlns="http://www.w3.org/2000/svg">
<rect width="48" height="48" fill="#F4F4F4"/>
<path fill-rule="evenodd" clip-rule="evenodd" d="M20.4826 27.5402C20.1814 27.239 19.6929 27.239 19.3917 27.5402C19.0904 27.8415 19.0904 28.3299 19.3917 28.6312L23.5059 32.7455C23.8072 33.0468 24.2956 33.0468 24.5969 32.7455L28.7112 28.6312C29.0125 28.3299 29.0125 27.8415 28.7112 27.5402C28.4099 27.239 27.9215 27.239 27.6202 27.5402L24.8229 30.3376V22.6343C24.8229 22.3787 24.4775 22.1714 24.0514 22.1714C23.6254 22.1714 23.28 22.3787 23.28 22.6343V30.3376L20.4826 27.5402ZM16.5429 18.6971V27.6571C16.5429 28.0359 16.1975 28.3429 15.7714 28.3429C15.3454 28.3429 15 28.0359 15 27.6571V18.6971C15 17.2214 16.2491 16 17.8286 16L30.1714 16C31.7509 16 33 17.2214 33 18.6971V27.6571C33 28.0359 32.6546 28.3429 32.2286 28.3429C31.8025 28.3429 31.4571 28.0359 31.4571 27.6571V18.6971C31.4571 17.9512 30.8642 17.3714 30.1714 17.3714H17.8286C17.1358 17.3714 16.5429 17.9512 16.5429 18.6971Z" fill="#131313"/>
</svg>
