<svg width="24" height="24" viewBox="0 0 24 24" fill="none" xmlns="http://www.w3.org/2000/svg">
<path fill-rule="evenodd" clip-rule="evenodd" d="M7.375 3.58333C6.938 3.58333 6.58333 3.938 6.58333 4.375V18.625C6.58333 19.062 6.938 19.4167 7.375 19.4167H16.875C17.312 19.4167 17.6667 19.062 17.6667 18.625V9.125H14.5C13.1882 9.125 12.125 8.06179 12.125 6.75V3.58333H7.375ZM13.7083 4.70275L16.5472 7.54167H14.5C14.063 7.54167 13.7083 7.187 13.7083 6.75V4.70275ZM5 4.375C5 3.06321 6.06321 2 7.375 2H12.9167C13.1265 2 13.3283 2.08312 13.4764 2.23196L19.018 7.77362C19.1669 7.92167 19.25 8.12354 19.25 8.33333V18.625C19.25 19.9368 18.1868 21 16.875 21H7.375C6.06321 21 5 19.9368 5 18.625V4.375ZM8.95833 13.0833C8.95833 12.6463 9.313 12.2917 9.75 12.2917H12.125C12.562 12.2917 12.9167 12.6463 12.9167 13.0833C12.9167 13.5203 12.562 13.875 12.125 13.875H9.75C9.313 13.875 8.95833 13.5203 8.95833 13.0833ZM8.95833 16.25C8.95833 15.813 9.313 15.4583 9.75 15.4583H14.5C14.937 15.4583 15.2917 15.813 15.2917 16.25C15.2917 16.687 14.937 17.0417 14.5 17.0417H9.75C9.313 17.0417 8.95833 16.687 8.95833 16.25Z" fill="#131313"/>
</svg>
