<svg width="24" height="24" viewBox="0 0 24 24" fill="none" xmlns="http://www.w3.org/2000/svg">
<path fill-rule="evenodd" clip-rule="evenodd" d="M5.25 6.5C4.836 6.5 4.5 6.836 4.5 7.25V16.25C4.5 16.664 4.836 17 5.25 17H18.75C19.164 17 19.5 16.664 19.5 16.25V9.5C19.5 9.086 19.164 8.75 18.75 8.75H11.25C11.0513 8.75 10.86 8.67125 10.7197 8.53025L8.90925 6.71975C8.76825 6.57875 8.57775 6.5 8.37825 6.5H5.25ZM3 7.25C3 6.00725 4.00725 5 5.25 5H8.37825C8.97525 5 9.5475 5.237 9.96975 5.65925L11.5605 7.25H18.75C19.9928 7.25 21 8.25725 21 9.5V16.25C21 17.4928 19.9928 18.5 18.75 18.5H5.25C4.00725 18.5 3 17.4928 3 16.25V7.25Z" fill="#131313"/>
</svg>
