<svg width="24" height="24" viewBox="0 0 24 24" fill="none" xmlns="http://www.w3.org/2000/svg">
<path fill-rule="evenodd" clip-rule="evenodd" d="M18.3071 6.82511C16.8597 5.31349 14.5548 5.18021 12.9568 6.51544L12 7.31515L11.0432 6.51544C9.4452 5.18021 7.14031 5.31349 5.69287 6.82511C4.21869 8.36466 4.12927 10.7981 5.51099 12.3688C6.71311 13.7367 8.11393 15.2515 9.3749 16.4192C10.0069 17.0042 10.5862 17.4862 11.0761 17.8174C11.6049 18.1742 11.9007 18.2644 12 18.2644C12.0993 18.2644 12.3951 18.1742 12.9239 17.8174C13.4138 17.4862 13.9931 17.0042 14.6251 16.4192C15.8861 15.2515 17.2869 13.7367 18.489 12.3688C19.87 10.7981 19.7813 8.36466 18.3071 6.82511ZM12.0015 5.2688C14.2086 3.42597 17.3893 3.60953 19.3877 5.69579C21.4106 7.80918 21.5788 11.2147 19.6147 13.4486C18.4004 14.8301 16.9583 16.392 15.6392 17.6139C14.9812 18.2237 14.3362 18.764 13.7531 19.1583C13.2098 19.5254 12.5839 19.8606 12 19.8606C11.4161 19.8606 10.7902 19.5254 10.2469 19.1583C9.66377 18.764 9.01877 18.2237 8.36077 17.6139C7.04172 16.392 5.59964 14.8301 4.38529 13.4486C2.42123 11.2147 2.58936 7.80918 4.61226 5.69579C6.6107 3.60953 9.7914 3.42597 11.9985 5.2688L12 5.2704L12.0015 5.2688Z" fill="#131313"/>
</svg>
