<svg width="24" height="24" viewBox="0 0 24 24" fill="none" xmlns="http://www.w3.org/2000/svg">
<path fill-rule="evenodd" clip-rule="evenodd" d="M11.9653 4.73432C11.6882 4.53245 11.3122 4.53245 11.0343 4.73432L5.95822 8.42662V17.6668C5.95822 18.1038 6.31289 18.4585 6.74988 18.4585H8.3332V13.7086C8.3332 12.3968 9.39639 11.3336 10.7082 11.3336H12.2915C13.6033 11.3336 14.6665 12.3968 14.6665 13.7086V18.4585H16.2498C16.6868 18.4585 17.0414 18.1038 17.0414 17.6668V8.42662L11.9653 4.73432ZM18.6247 9.57769L19.7426 10.3907C20.0956 10.648 20.5912 10.5696 20.8485 10.2158C21.1058 9.86268 21.0274 9.36711 20.6736 9.10982L12.8971 3.45421C12.0635 2.8486 10.9362 2.8486 10.1026 3.45421L2.3261 9.10982C1.97223 9.36711 1.89465 9.86268 2.15114 10.2158C2.40843 10.5696 2.90401 10.648 3.25709 10.3907L4.37491 9.57769V17.6668C4.37491 18.9786 5.43811 20.0418 6.74988 20.0418H16.2498C17.5616 20.0418 18.6247 18.9786 18.6247 17.6668V9.57769ZM13.0831 18.4585V13.7086C13.0831 13.2716 12.7285 12.9169 12.2915 12.9169H10.7082C10.2712 12.9169 9.91651 13.2716 9.91651 13.7086V18.4585H13.0831Z" fill="#131313"/>
</svg>
