<svg width="24" height="24" viewBox="0 0 24 24" fill="none" xmlns="http://www.w3.org/2000/svg">
<path fill-rule="evenodd" clip-rule="evenodd" d="M12.7457 4.62909C12.5169 4.50393 12.2397 4.50393 12.0101 4.62909L5.53522 8.16098L12.0101 11.6929C12.2397 11.818 12.5169 11.818 12.7457 11.6929L19.2206 8.16098L12.7457 4.62909ZM11.2746 3.28159C11.9625 2.90614 12.7933 2.90614 13.4812 3.28159L19.9553 6.81272C21.0226 7.39471 21.0226 8.92725 19.9553 9.50925L18.9081 10.0805L19.9553 10.6517C21.0226 11.2337 21.0226 12.7663 19.9553 13.3483L18.9081 13.9195L19.9553 14.4908C21.0226 15.0727 21.0226 16.6053 19.9553 17.1873L13.4812 20.7184C12.7933 21.0939 11.9625 21.0939 11.2746 20.7184L4.80044 17.1873C3.73319 16.6053 3.73319 15.0727 4.80044 14.4908L5.84772 13.9195L4.80044 13.3483C3.73319 12.7663 3.73319 11.2337 4.80044 10.6517L5.84772 10.0805L4.80044 9.50925C3.73319 8.92725 3.73319 7.39471 4.80044 6.81272L11.2746 3.28159ZM7.45089 10.955L5.53522 12L12.0101 15.5319C12.2397 15.657 12.5169 15.657 12.7457 15.5319L19.2206 12L17.3049 10.955L13.4812 13.0404C12.7933 13.4158 11.9625 13.4158 11.2746 13.0404L7.45089 10.955ZM7.45089 14.794L5.53522 15.839L12.0101 19.3709C12.2397 19.4961 12.5169 19.4961 12.7457 19.3709L19.2206 15.839L17.3049 14.794L13.4812 16.8794C12.7933 17.2548 11.9625 17.2548 11.2746 16.8794L7.45089 14.794Z" fill="#131313"/>
</svg>
