<svg width="24" height="24" viewBox="0 0 24 24" fill="none" xmlns="http://www.w3.org/2000/svg">
<path fill-rule="evenodd" clip-rule="evenodd" d="M8.9456 8.96834C9.24686 8.66708 9.24686 8.17864 8.9456 7.87738C8.64434 7.57612 8.1559 7.57612 7.85464 7.87738L3.74035 11.9917C3.43909 12.2929 3.43909 12.7814 3.74035 13.0826L7.85464 17.1969C8.1559 17.4982 8.64434 17.4982 8.9456 17.1969C9.24686 16.8957 9.24686 16.4072 8.9456 16.1059L6.14823 13.3086H13.8515C14.1072 13.3086 14.3144 12.9632 14.3144 12.5371C14.3144 12.1111 14.1072 11.7657 13.8515 11.7657H6.14823L8.9456 8.96834ZM17.7887 5.02858H8.82869C8.44998 5.02858 8.14298 4.6832 8.14298 4.25715C8.14298 3.8311 8.44998 3.48572 8.82869 3.48572H17.7887C19.2645 3.48572 20.4858 4.73484 20.4858 6.31429V18.6571C20.4858 20.2366 19.2645 21.4857 17.7887 21.4857H8.82869C8.44998 21.4857 8.14298 21.1403 8.14298 20.7143C8.14298 20.2882 8.44998 19.9429 8.82869 19.9429H17.7887C18.5347 19.9429 19.1144 19.35 19.1144 18.6571V6.31429C19.1144 5.62148 18.5347 5.02858 17.7887 5.02858Z" fill="#131313"/>
</svg>
