<svg width="24" height="24" viewBox="0 0 24 24" fill="none" xmlns="http://www.w3.org/2000/svg">
<path fill-rule="evenodd" clip-rule="evenodd" d="M3 3.79545C3 3.35795 3.35636 3 3.79545 3H7.77273C8.21182 3 8.56818 3.35795 8.56818 3.79545C8.56818 4.23295 8.21182 4.59091 7.77273 4.59091H5.71568L9.92602 8.79886C10.237 9.10909 10.237 9.61818 9.92602 9.92841C9.615 10.2386 9.11227 10.2386 8.80125 9.92841L4.59091 5.7125V7.77273C4.59091 8.21023 4.23455 8.56818 3.79545 8.56818C3.35636 8.56818 3 8.21023 3 7.77273V3.79545ZM15.7273 3H19.7045C20.1436 3 20.5 3.35795 20.5 3.79545V7.77273C20.5 8.21023 20.1436 8.56818 19.7045 8.56818C19.2655 8.56818 18.9091 8.21023 18.9091 7.77273V5.7125L14.6988 9.92841C14.3877 10.2386 13.885 10.2386 13.574 9.92841C13.263 9.61818 13.263 9.10909 13.574 8.79886L17.7843 4.59091H15.7273C15.2882 4.59091 14.9318 4.23295 14.9318 3.79545C14.9318 3.35795 15.2882 3 15.7273 3ZM9.92602 13.5716C10.237 13.8818 10.237 14.3909 9.92602 14.7011L5.71568 18.9091H7.77273C8.21182 18.9091 8.56818 19.267 8.56818 19.7045C8.56818 20.142 8.21182 20.5 7.77273 20.5H3.79545C3.35636 20.5 3 20.142 3 19.7045V15.7273C3 15.2898 3.35636 14.9318 3.79545 14.9318C4.23455 14.9318 4.59091 15.2898 4.59091 15.7273V17.7875L8.80125 13.5716C9.11227 13.2614 9.615 13.2614 9.92602 13.5716ZM13.574 13.5716C13.885 13.2614 14.3877 13.2614 14.6988 13.5716L18.9091 17.7875V15.7273C18.9091 15.2898 19.2655 14.9318 19.7045 14.9318C20.1436 14.9318 20.5 15.2898 20.5 15.7273V19.7045C20.5 20.142 20.1436 20.5 19.7045 20.5H15.7273C15.2882 20.5 14.9318 20.142 14.9318 19.7045C14.9318 19.267 15.2882 18.9091 15.7273 18.9091H17.7843L13.574 14.7011C13.263 14.3909 13.263 13.8818 13.574 13.5716Z" fill="#131313"/>
</svg>
