<svg width="24" height="24" viewBox="0 0 24 24" fill="none" xmlns="http://www.w3.org/2000/svg">
<path fill-rule="evenodd" clip-rule="evenodd" d="M17.5302 5.12778C17.5302 4.67343 17.0807 4.33977 16.6094 4.43916L9.84431 5.91579C9.50305 5.98678 9.26176 6.27785 9.26176 6.60441V7.77578L17.5302 5.97968V5.12778ZM17.5302 7.43502L9.26176 9.23822V17.5088C9.26176 18.6944 8.37628 19.7166 7.14729 19.9438L7.10294 19.9509C5.4981 20.2562 4 19.099 4 17.5514C4 16.38 4.8727 15.379 6.08516 15.1519L7.7584 14.8324V6.60441C7.7584 5.61052 8.48302 4.75152 9.50606 4.53145L16.2712 3.05481C17.6843 2.74955 19.0336 3.75763 19.0336 5.12778V15.379C19.0336 16.5646 18.1481 17.5869 16.9191 17.8141L16.8748 17.8212C15.2699 18.1264 13.7718 16.9692 13.7718 15.4216C13.7718 14.2503 14.6445 13.2493 15.857 13.0221L17.5302 12.7026V7.43502ZM17.5302 14.1509L16.1524 14.4135C15.642 14.5058 15.2752 14.9318 15.2752 15.4216C15.2752 16.0748 15.9051 16.5575 16.5801 16.4297L16.6237 16.4226C17.1506 16.3232 17.5302 15.8902 17.5302 15.379V14.1509ZM7.7584 16.2806L6.38057 16.5433C5.87018 16.6356 5.50336 17.0615 5.50336 17.5514C5.50336 18.2045 6.13327 18.6873 6.80828 18.5595L6.85188 18.5524C7.3788 18.453 7.7584 18.0199 7.7584 17.5088V16.2806Z" fill="#131313"/>
</svg>
