<svg width="24" height="24" viewBox="0 0 24 24" fill="none" xmlns="http://www.w3.org/2000/svg">
<path fill-rule="evenodd" clip-rule="evenodd" d="M5.25806 4.55178C4.80649 4.55178 4.52018 4.90404 4.5551 5.24853C5.24487 12.2137 10.7863 17.7551 17.7515 18.4449C18.096 18.4798 18.4482 18.1935 18.4482 17.7419V14.9805C18.4482 14.6469 18.2348 14.3505 17.9175 14.245L15.2329 13.3496C14.9544 13.2573 14.6471 13.3294 14.4392 13.5374L14.0093 13.9672C13.4957 14.4809 12.6764 14.5794 12.0564 14.155C10.5884 13.151 9.73418 12.3022 8.8225 10.9304C8.41051 10.3097 8.51835 9.5043 9.02346 8.99997L9.46262 8.56082C9.67055 8.35288 9.74271 8.04562 9.6496 7.76708L8.755 5.08249C8.64948 4.76515 8.35309 4.55178 8.01946 4.55178H5.25806ZM3.01108 5.40216C2.87607 4.04125 3.99568 3 5.25806 3H8.01946C9.02113 3 9.9103 3.64089 10.2269 4.59135L11.1222 7.27594C11.4008 8.11235 11.1835 9.03489 10.5597 9.65793L10.1276 10.0901C10.9112 11.2663 11.6157 11.9724 12.9177 12.8647L13.3421 12.4403C13.9651 11.8165 14.8876 11.5992 15.7241 11.8778L18.4086 12.7731C19.3591 13.0897 20 13.9789 20 14.9805V17.7419C20 19.0043 18.9588 20.1239 17.5978 19.9889C9.89711 19.2262 3.77378 13.1029 3.01108 5.40216ZM13.7929 3.77589C13.7929 3.3476 14.1405 3 14.5688 3C17.5684 3 20 5.43164 20 8.43124C20 8.85953 19.6524 9.20713 19.2241 9.20713C18.7958 9.20713 18.4482 8.85953 18.4482 8.43124C18.4482 6.28901 16.711 4.55178 14.5688 4.55178C14.1405 4.55178 13.7929 4.20418 13.7929 3.77589ZM13.7929 6.87946C13.7929 6.45117 14.1405 6.10357 14.5688 6.10357C15.8544 6.10357 16.8964 7.14559 16.8964 8.43124C16.8964 8.85953 16.5488 9.20713 16.1205 9.20713C15.6922 9.20713 15.3447 8.85953 15.3447 8.43124C15.3447 8.00295 14.9971 7.65535 14.5688 7.65535C14.1405 7.65535 13.7929 7.30775 13.7929 6.87946Z" fill="#131313"/>
</svg>
