<svg width="24" height="24" viewBox="0 0 24 24" fill="none" xmlns="http://www.w3.org/2000/svg">
<path fill-rule="evenodd" clip-rule="evenodd" d="M12 5.50001C10.2735 5.50001 8.71873 6.26501 7.64473 7.49502C7.37248 7.80252 6.89847 7.84002 6.58647 7.56252C6.27522 7.29252 6.24372 6.82001 6.51597 6.50501C7.85923 4.975 9.81674 4 12 4C16.0253 4 19.2698 7.29252 19.3485 11.35L19.7138 10.975C20.0033 10.6825 20.478 10.675 20.7743 10.9675C21.0705 11.2525 21.0758 11.725 20.7863 12.025L19.1363 13.7126C18.9953 13.8551 18.8018 13.9376 18.6 13.9376C18.3983 13.9376 18.2048 13.8551 18.0638 13.7126L16.4138 12.025C16.1243 11.725 16.1295 11.2525 16.4258 10.9675C16.722 10.675 17.1968 10.6825 17.4863 10.975L17.8478 11.3425C17.7683 8.08752 15.165 5.50001 12 5.50001ZM5.39997 9.06253C5.60172 9.06253 5.79522 9.14503 5.93622 9.28753L7.58623 10.975C7.87573 11.275 7.87048 11.7475 7.57423 12.0325C7.27798 12.325 6.80322 12.3175 6.51372 12.025L6.15222 11.6575C6.23172 14.9126 8.83498 17.5001 12 17.5001C13.7265 17.5001 15.2813 16.7351 16.3553 15.5051C16.6275 15.1976 17.1015 15.1601 17.4135 15.4376C17.7248 15.7076 17.7563 16.1801 17.484 16.4951C16.1408 18.0251 14.1833 19.0001 12 19.0001C7.97473 19.0001 4.73021 15.7076 4.65146 11.65L4.28621 12.025C3.99671 12.3175 3.52196 12.325 3.22571 12.0325C2.92945 11.7475 2.9242 11.275 3.2137 10.975L4.86371 9.28753C5.00471 9.14503 5.19822 9.06253 5.39997 9.06253Z" fill="#131313"/>
</svg>
