<svg width="24" height="24" viewBox="0 0 24 24" fill="none" xmlns="http://www.w3.org/2000/svg">
<path fill-rule="evenodd" clip-rule="evenodd" d="M14.1364 4.59091C13.6973 4.59091 13.3409 4.23295 13.3409 3.79545C13.3409 3.35795 13.6973 3 14.1364 3H19.7045C20.1436 3 20.5 3.35795 20.5 3.79545V9.36364C20.5 9.80114 20.1436 10.1591 19.7045 10.1591C19.2655 10.1591 18.9091 9.80114 18.9091 9.36364V5.7125L14.6988 9.92841C14.3877 10.2386 13.885 10.2386 13.574 9.92841C13.263 9.61818 13.263 9.10909 13.574 8.79886L17.7843 4.59091H14.1364ZM3.79545 13.3409C4.23455 13.3409 4.59091 13.6989 4.59091 14.1364V17.7875L8.80125 13.5716C9.11227 13.2614 9.615 13.2614 9.92602 13.5716C10.237 13.8818 10.237 14.3909 9.92602 14.7011L5.71568 18.9091H9.36364C9.80273 18.9091 10.1591 19.267 10.1591 19.7045C10.1591 20.142 9.80273 20.5 9.36364 20.5H3.79545C3.35636 20.5 3 20.142 3 19.7045V14.1364C3 13.6989 3.35636 13.3409 3.79545 13.3409Z" fill="#131313"/>
</svg>
