<svg width="48" height="48" viewBox="0 0 48 48" fill="none" xmlns="http://www.w3.org/2000/svg">
<rect width="48" height="48" fill="#F4F4F4"/>
<path fill-rule="evenodd" clip-rule="evenodd" d="M27.0544 28.0031C26.7531 28.3044 26.7531 28.7928 27.0544 29.0941C27.3557 29.3953 27.8441 29.3953 28.1454 29.0941L32.2596 24.9798C32.5609 24.6785 32.5609 24.1901 32.2596 23.8888L28.1454 19.7745C27.8441 19.4733 27.3557 19.4733 27.0544 19.7745C26.7531 20.0758 26.7531 20.5642 27.0544 20.8655L29.8518 23.6629H22.1485C21.8928 23.6629 21.6856 24.0082 21.6856 24.4343C21.6856 24.8603 21.8928 25.2057 22.1485 25.2057H29.8518L27.0544 28.0031ZM18.2113 31.9429L27.1713 31.9429C27.55 31.9429 27.857 32.2882 27.857 32.7143C27.857 33.1403 27.55 33.4857 27.1713 33.4857H18.2113C16.7355 33.4857 15.5142 32.2366 15.5142 30.6571L15.5142 18.3143C15.5142 16.7348 16.7355 15.4857 18.2113 15.4857H27.1713C27.55 15.4857 27.857 15.8311 27.857 16.2571C27.857 16.6832 27.55 17.0286 27.1713 17.0286L18.2113 17.0286C17.4653 17.0286 16.8856 17.6215 16.8856 18.3143L16.8856 30.6571C16.8856 31.35 17.4653 31.9429 18.2113 31.9429Z" fill="#131313"/>
</svg>
