<svg width="24" height="24" viewBox="0 0 24 24" fill="none" xmlns="http://www.w3.org/2000/svg">
<path fill-rule="evenodd" clip-rule="evenodd" d="M10.0541 17.1081C6.15821 17.1081 3 13.9499 3 10.0541C3 6.15821 6.15821 3 10.0541 3C13.9499 3 17.1081 6.15821 17.1081 10.0541C17.1081 11.7391 16.5173 13.2862 15.5314 14.4994L20.7863 19.7543C21.0712 20.0393 21.0712 20.5013 20.7863 20.7863C20.5013 21.0712 20.0393 21.0712 19.7543 20.7863L14.4994 15.5314C13.2862 16.5173 11.7391 17.1081 10.0541 17.1081ZM10.0541 15.6486C13.1439 15.6486 15.6486 13.1439 15.6486 10.0541C15.6486 6.96424 13.1439 4.45946 10.0541 4.45946C6.96424 4.45946 4.45946 6.96424 4.45946 10.0541C4.45946 13.1439 6.96424 15.6486 10.0541 15.6486Z" fill="#131313"/>
</svg>
