<svg width="24" height="24" viewBox="0 0 24 24" fill="none" xmlns="http://www.w3.org/2000/svg">
<path fill-rule="evenodd" clip-rule="evenodd" d="M16.9091 4.54545C16.056 4.54545 15.3636 5.23782 15.3636 6.09091C15.3636 6.3405 15.4224 6.57464 15.5259 6.78173C15.7809 7.29018 16.3048 7.63636 16.9091 7.63636C17.7622 7.63636 18.4545 6.944 18.4545 6.09091C18.4545 5.23782 17.7622 4.54545 16.9091 4.54545ZM13.8182 6.09091C13.8182 4.38395 15.2021 3 16.9091 3C18.616 3 20 4.38395 20 6.09091C20 7.79786 18.616 9.18182 16.9091 9.18182C15.978 9.18182 15.1442 8.76995 14.5778 8.12009L9.11382 10.8525C9.15864 11.0619 9.18182 11.2782 9.18182 11.5C9.18182 11.7218 9.15864 11.9381 9.11382 12.1475L14.5778 14.8799C15.1442 14.23 15.978 13.8182 16.9091 13.8182C18.616 13.8182 20 15.2021 20 16.9091C20 18.616 18.616 20 16.9091 20C15.2021 20 13.8182 18.616 13.8182 16.9091C13.8182 16.6873 13.8414 16.471 13.8862 16.2615L8.42223 13.5292C7.85582 14.179 7.02205 14.5909 6.09091 14.5909C4.38395 14.5909 3 13.207 3 11.5C3 9.79305 4.38395 8.40909 6.09091 8.40909C7.02205 8.40909 7.85582 8.82095 8.42223 9.47082L13.8862 6.73845C13.8414 6.52905 13.8182 6.31268 13.8182 6.09091ZM6.09091 9.95455C5.23782 9.95455 4.54545 10.6469 4.54545 11.5C4.54545 12.3531 5.23782 13.0455 6.09091 13.0455C6.69441 13.0455 7.21909 12.6993 7.47409 12.1908C7.57764 11.9837 7.63636 11.7496 7.63636 11.5C7.63636 11.2504 7.57764 11.0163 7.47409 10.8092C7.21909 10.3007 6.69441 9.95455 6.09091 9.95455ZM16.9091 15.3636C16.3048 15.3636 15.7809 15.7098 15.5259 16.2183C15.4224 16.4254 15.3636 16.6595 15.3636 16.9091C15.3636 17.7622 16.056 18.4545 16.9091 18.4545C17.7622 18.4545 18.4545 17.7622 18.4545 16.9091C18.4545 16.056 17.7622 15.3636 16.9091 15.3636Z" fill="#131313"/>
</svg>
