<svg width="24" height="24" viewBox="0 0 24 24" fill="none" xmlns="http://www.w3.org/2000/svg">
<path fill-rule="evenodd" clip-rule="evenodd" d="M11.75 21.72C17.1348 21.72 21.5 17.5294 21.5 12.36C21.5 7.19061 17.1348 3 11.75 3C6.36522 3 2 7.19061 2 12.36C2 17.5294 6.36522 21.72 11.75 21.72ZM11.75 20.28C7.19365 20.28 3.5 16.7341 3.5 12.36C3.5 10.0468 4.53302 7.9652 6.18036 6.5172L15.926 19.1919C14.701 19.8834 13.2738 20.28 11.75 20.28ZM17.1609 18.3388C18.9003 16.8867 20 14.7467 20 12.36C20 7.9859 16.3063 4.44 11.75 4.44C10.1501 4.44 8.65665 4.87718 7.39207 5.63388L17.1609 18.3388Z" fill="#131313"/>
</svg>
