<svg width="24" height="24" viewBox="0 0 24 24" fill="none" xmlns="http://www.w3.org/2000/svg">
<path fill-rule="evenodd" clip-rule="evenodd" d="M6.00016 7C6.41415 7 6.75015 7.3375 6.75015 7.74999V13.4424L7.71989 12.4674C8.01313 12.1749 8.48713 12.1749 8.78038 12.4674C9.07362 12.7599 9.07362 13.2399 8.78038 13.5324L6.5304 15.7824C6.23715 16.0749 5.76316 16.0749 5.46991 15.7824L3.21994 13.5324C2.92669 13.2399 2.92669 12.7599 3.21994 12.4674C3.51318 12.1749 3.98718 12.1749 4.28042 12.4674L5.25016 13.4424V7.74999C5.25016 7.3375 5.58616 7 6.00016 7ZM10.5001 7.74999C10.5001 7.3375 10.8361 7 11.2501 7H17.25C17.664 7 18 7.3375 18 7.74999C18 8.16249 17.664 8.49998 17.25 8.49998H11.2501C10.8361 8.49998 10.5001 8.16249 10.5001 7.74999ZM10.5001 11.5C10.5001 11.0875 10.8361 10.75 11.2501 10.75H17.25C17.664 10.75 18 11.0875 18 11.5C18 11.9124 17.664 12.2499 17.25 12.2499H11.2501C10.8361 12.2499 10.5001 11.9124 10.5001 11.5ZM10.5001 15.2499C10.5001 14.8374 10.8361 14.4999 11.2501 14.4999H20.25C20.664 14.4999 21 14.8374 21 15.2499C21 15.6624 20.664 15.9999 20.25 15.9999H11.2501C10.8361 15.9999 10.5001 15.6624 10.5001 15.2499Z" fill="#131313"/>
</svg>
