<svg width="24" height="24" viewBox="0 0 24 24" fill="none" xmlns="http://www.w3.org/2000/svg">
<path fill-rule="evenodd" clip-rule="evenodd" d="M12.3041 20.3918C17.1067 20.3918 21 16.4985 21 11.6959C21 6.89328 17.1067 3 12.3041 3C7.50152 3 3.60825 6.89328 3.60825 11.6959C3.60825 13.7966 4.35821 15.7759 5.67468 17.3243H3.66891C3.29948 17.3243 3 17.6237 3 17.9932C3 18.3626 3.29948 18.6621 3.66891 18.6621H7.45286C7.82229 18.6621 8.12177 18.3626 8.12177 17.9932V14.2092C8.12177 13.8398 7.82229 13.5403 7.45286 13.5403C7.08343 13.5403 6.78395 13.8398 6.78395 14.2092V16.5616C5.61414 15.2365 4.94608 13.5212 4.94608 11.6959C4.94608 7.63214 8.24039 4.33783 12.3041 4.33783C16.3679 4.33783 19.6622 7.63214 19.6622 11.6959C19.6622 15.7596 16.3679 19.0539 12.3041 19.0539C11.9347 19.0539 11.6352 19.3534 11.6352 19.7228C11.6352 20.0923 11.9347 20.3918 12.3041 20.3918ZM12.3041 7.28169C12.6736 7.28169 12.973 7.58117 12.973 7.9506V12.3107L15.1454 14.4831C15.4067 14.7443 15.4067 15.1679 15.1454 15.4291C14.8842 15.6903 14.4607 15.6903 14.1995 15.4291L11.8311 13.0608C11.7057 12.9353 11.6352 12.7652 11.6352 12.5878V7.9506C11.6352 7.58117 11.9347 7.28169 12.3041 7.28169Z" fill="#131313"/>
</svg>
