<svg width="24" height="24" viewBox="0 0 24 24" fill="none" xmlns="http://www.w3.org/2000/svg">
<path fill-rule="evenodd" clip-rule="evenodd" d="M12 21C16.9706 21 21 16.9706 21 12C21 7.02944 16.9706 3 12 3C7.02944 3 3 7.02944 3 12C3 16.9706 7.02944 21 12 21ZM12 19.6154C7.79414 19.6154 4.38462 16.2059 4.38462 12C4.38462 7.79414 7.79414 4.38462 12 4.38462C16.2059 4.38462 19.6154 7.79414 19.6154 12C19.6154 16.2059 16.2059 19.6154 12 19.6154ZM12 7.43143C12.3824 7.43143 12.6923 7.74139 12.6923 8.12374V12.6363L14.9407 14.8847C15.2111 15.1551 15.2111 15.5934 14.9407 15.8638C14.6703 16.1341 14.232 16.1341 13.9616 15.8638L11.5105 13.4126C11.3806 13.2828 11.3077 13.1067 11.3077 12.9231V8.12374C11.3077 7.74139 11.6176 7.43143 12 7.43143Z" fill="#131313"/>
</svg>
