<svg width="24" height="24" viewBox="0 0 24 24" fill="none" xmlns="http://www.w3.org/2000/svg">
<path fill-rule="evenodd" clip-rule="evenodd" d="M10.75 4.5C10.336 4.5 10 4.836 10 5.25V6H13V5.25C13 4.836 12.664 4.5 12.25 4.5H10.75ZM14.5 6V5.25C14.5 4.00725 13.4928 3 12.25 3H10.75C9.50725 3 8.5 4.00725 8.5 5.25V6H4.75C4.336 6 4 6.336 4 6.75C4 7.164 4.336 7.5 4.75 7.5H4.82875L6.106 18.9983C6.23275 20.1383 7.19575 21 8.3425 21H14.6575C15.8043 21 16.7673 20.1383 16.8933 18.9983L18.1713 7.5H18.25C18.664 7.5 19 7.164 19 6.75C19 6.336 18.664 6 18.25 6H14.5ZM16.6623 7.5H6.33775L7.597 18.8325C7.63975 19.2128 7.96075 19.5 8.3425 19.5H14.6575C15.0392 19.5 15.3603 19.2128 15.403 18.8325L16.6623 7.5ZM10 9.75C10.414 9.75 10.75 10.086 10.75 10.5V16.5C10.75 16.914 10.414 17.25 10 17.25C9.586 17.25 9.25 16.914 9.25 16.5V10.5C9.25 10.086 9.586 9.75 10 9.75ZM13 9.75C13.414 9.75 13.75 10.086 13.75 10.5V16.5C13.75 16.914 13.414 17.25 13 17.25C12.586 17.25 12.25 16.914 12.25 16.5V10.5C12.25 10.086 12.586 9.75 13 9.75Z" fill="#131313"/>
</svg>
