<svg width="24" height="24" viewBox="0 0 24 24" fill="none" xmlns="http://www.w3.org/2000/svg">
<path fill-rule="evenodd" clip-rule="evenodd" d="M11.625 7.5C9.015 7.5 6.8835 9.555 6.756 12.1275C6.7395 12.4575 6.5115 12.735 6.192 12.8175C5.2185 13.065 4.5 13.95 4.5 15C4.5 16.245 5.50725 17.25 6.75 17.25H8.25C8.664 17.25 9 17.5875 9 18C9 18.4125 8.664 18.75 8.25 18.75H6.75C4.67925 18.75 3 17.07 3 15C3 13.44 3.95175 12.105 5.304 11.5425C5.71425 8.415 8.38725 6 11.625 6C13.9478 6 15.9795 7.245 17.0933 9.0975C19.3223 9.5475 21 11.5125 21 13.875C21 16.5675 18.8175 18.75 16.125 18.75H15.75C15.336 18.75 15 18.4125 15 18C15 17.5875 15.336 17.25 15.75 17.25H16.125C17.9888 17.25 19.5 15.7425 19.5 13.875C19.5 12.15 18.2017 10.725 16.5278 10.5225C16.2817 10.4925 16.0658 10.3425 15.9517 10.125C15.1372 8.565 13.5045 7.5 11.625 7.5ZM11.4698 11.4675C11.763 11.175 12.237 11.175 12.5303 11.4675L14.7803 13.7175C15.0735 14.01 15.0735 14.49 14.7803 14.7825C14.487 15.075 14.013 15.075 13.7197 14.7825L12.75 13.8075V18C12.75 18.4125 12.414 18.75 12 18.75C11.586 18.75 11.25 18.4125 11.25 18V13.8075L10.2803 14.7825C9.987 15.075 9.513 15.075 9.21975 14.7825C8.9265 14.49 8.9265 14.01 9.21975 13.7175L11.4698 11.4675Z" fill="#131313"/>
</svg>
