<svg width="24" height="24" viewBox="0 0 24 24" fill="none" xmlns="http://www.w3.org/2000/svg">
<path fill-rule="evenodd" clip-rule="evenodd" d="M5.53846 6H13.8462C15.215 6 16.3309 7.08354 16.3827 8.43973L18.7847 7.47895C19.613 7.14762 20.5531 7.55052 20.8845 8.37886C20.9608 8.56967 21 8.77329 21 8.9788V15.4827C21 16.3749 20.2768 17.0981 19.3846 17.0981C19.1791 17.0981 18.9755 17.0589 18.7847 16.9826L16.3827 16.0218C16.3309 17.378 15.215 18.4615 13.8462 18.4615H5.53846C4.13651 18.4615 3 17.325 3 15.9231V8.53846C3 7.13651 4.13651 6 5.53846 6ZM15 15V9.46154V8.53846C15 7.90121 14.4834 7.38462 13.8462 7.38462H5.53846C4.90121 7.38462 4.38462 7.90121 4.38462 8.53846V15.9231C4.38462 16.5603 4.90121 17.0769 5.53846 17.0769H13.8462C14.4834 17.0769 15 16.5603 15 15.9231V15ZM16.3846 14.5313L19.2989 15.697C19.3262 15.7079 19.3553 15.7135 19.3846 15.7135C19.5121 15.7135 19.6154 15.6102 19.6154 15.4827V8.9788C19.6154 8.94944 19.6098 8.92035 19.5989 8.89309C19.5515 8.77476 19.4172 8.7172 19.2989 8.76454L16.3846 9.93025V14.5313Z" fill="#131313"/>
</svg>
